<?xml version="1.0" encoding="UTF-8"?>
<svg width="14px" height="14px" viewBox="0 0 14 14" version="1.1" xmlns="http://www.w3.org/2000/svg" xmlns:xlink="http://www.w3.org/1999/xlink">
    <!-- Generator: sketchtool 54.1 (76490) - https://sketchapp.com -->
    <title>CED485BB-8B3B-4A6D-8D89-CFEB3B081EF8</title>
    <desc>Created with sketchtool.</desc>
    <g id="Page-1" stroke="none" stroke-width="1" fill="none" fill-rule="evenodd">
        <g id="[New-Colors]-Individual-Action-Page" transform="translate(-1141.000000, -1425.000000)" fill="#FFFFFF" fill-rule="nonzero">
            <g id="Group-31" transform="translate(195.000000, 1415.000000)">
                <g id="Group" transform="translate(926.000000, 0.000000)">
                    <g id="add-copy" transform="translate(20.000000, 10.000000)">
                        <path d="M13.2364593,6.02153659 L7.97445122,6.02153659 L7.97445122,0.7595 C7.97445122,0.519792683 7.64895122,2.84552846e-05 6.99797967,2.84552846e-05 C6.34700813,2.84552846e-05 6.02150813,0.519821138 6.02150813,0.7595 L6.02150813,6.02156504 L0.759471545,6.02156504 C0.519792683,6.02153659 0,6.34703659 0,6.99797967 C0,7.64892276 0.519792683,7.97445122 0.759471545,7.97445122 L6.02153659,7.97445122 L6.02153659,13.2365163 C6.02153659,13.4761667 6.34700813,13.9959878 6.99800813,13.9959878 C7.64900813,13.9959878 7.97447967,13.4761667 7.97447967,13.2365163 L7.97447967,7.97445122 L13.2365447,7.97445122 C13.4761951,7.97445122 13.9960163,7.64897967 13.9960163,6.99797967 C13.9960163,6.34697967 13.4761382,6.02153659 13.2364593,6.02153659 Z" id="Path"></path>
                    </g>
                </g>
            </g>
        </g>
    </g>
</svg>