<?xml version="1.0" encoding="UTF-8"?>
<svg width="12px" height="12px" viewBox="0 0 12 12" version="1.1" xmlns="http://www.w3.org/2000/svg" xmlns:xlink="http://www.w3.org/1999/xlink">
    <!-- Generator: sketchtool 54.1 (76490) - https://sketchapp.com -->
    <title>DAEC0F07-A816-4F71-ABB7-B883DB6AB60A</title>
    <desc>Created with sketchtool.</desc>
    <g id="Page-1" stroke="none" stroke-width="1" fill="none" fill-rule="evenodd">
        <g id="[New-Colors]-Individual-Action-Page" transform="translate(-211.000000, -1609.000000)" fill="#C2C2CC" fill-rule="nonzero">
            <g id="Group-31" transform="translate(195.000000, 1415.000000)">
                <g id="Group-3" transform="translate(16.000000, 192.000000)">
                    <g id="add-copy-2" transform="translate(0.000000, 2.000000)">
                        <path d="M11.3455366,5.16131707 L6.8352439,5.16131707 L6.8352439,0.651 C6.8352439,0.445536585 6.5562439,2.43902439e-05 5.99826829,2.43902439e-05 C5.44029268,2.43902439e-05 5.16129268,0.445560976 5.16129268,0.651 L5.16129268,5.16134146 L0.65097561,5.16134146 C0.445536585,5.16131707 0,5.44031707 0,5.99826829 C0,6.55621951 0.445536585,6.8352439 0.65097561,6.8352439 L5.16131707,6.8352439 L5.16131707,11.3455854 C5.16131707,11.551 5.44029268,11.996561 5.99829268,11.996561 C6.55629268,11.996561 6.83526829,11.551 6.83526829,11.3455854 L6.83526829,6.8352439 L11.3456098,6.8352439 C11.5510244,6.8352439 11.9965854,6.55626829 11.9965854,5.99826829 C11.9965854,5.44026829 11.5509756,5.16131707 11.3455366,5.16131707 Z" id="Path"></path>
                    </g>
                </g>
            </g>
        </g>
    </g>
</svg>