<?xml version="1.0" encoding="UTF-8"?>
<svg width="12px" height="14px" viewBox="0 0 12 14" version="1.1" xmlns="http://www.w3.org/2000/svg" xmlns:xlink="http://www.w3.org/1999/xlink">
    <!-- Generator: Sketch 54.1 (76490) - https://sketchapp.com -->
    <title>Mask</title>
    <desc>Created with Sketch.</desc>
    <defs>
        <path d="M9.34375,8 L9.34375,11.34375 L6,11.34375 L6,8 L9.34375,8 Z M8.65625,0.65625 L10,0.65625 L10,2 L10.65625,2 C11.0312519,2 11.348957,2.13020703 11.609375,2.390625 C11.869793,2.65104297 12,2.96874812 12,3.34375 L12,12.65625 C12,13.0312519 11.869793,13.348957 11.609375,13.609375 C11.348957,13.869793 11.0312519,14 10.65625,14 L1.34375,14 C0.968748125,14 0.651042969,13.869793 0.390625,13.609375 C0.130207031,13.348957 0,13.0312519 0,12.65625 L0,3.34375 C0,2.96874812 0.130207031,2.65104297 0.390625,2.390625 C0.651042969,2.13020703 0.968748125,2 1.34375,2 L2,2 L2,0.65625 L3.34375,0.65625 L3.34375,2 L8.65625,2 L8.65625,0.65625 Z M10.65625,12.65625 L10.65625,5.34375 L1.34375,5.34375 L1.34375,12.65625 L10.65625,12.65625 Z" id="path-1"></path>
    </defs>
    <g id="Page-1" stroke="none" stroke-width="1" fill="none" fill-rule="evenodd">
        <g id="Question-States" transform="translate(-400.000000, -1952.000000)">
            <g id="Group-25" transform="translate(214.000000, 1950.000000)">
                <g id="Group" transform="translate(186.000000, 2.000000)">
                    <mask id="mask-2" fill="white">
                        <use xlink:href="#path-1"></use>
                    </mask>
                    <use id="Mask" fill="#5C5C5C" xlink:href="#path-1"></use>
                </g>
            </g>
        </g>
    </g>
</svg>