<?xml version="1.0" encoding="UTF-8"?>
<svg width="16px" height="16px" viewBox="0 0 16 16" version="1.1" xmlns="http://www.w3.org/2000/svg" xmlns:xlink="http://www.w3.org/1999/xlink">
    <!-- Generator: sketchtool 54.1 (76490) - https://sketchapp.com -->
    <title>C79B920B-16EE-4E48-A429-5898BF01596E</title>
    <desc>Created with sketchtool.</desc>
    <g id="Page-1" stroke="none" stroke-width="1" fill="none" fill-rule="evenodd">
        <g id="[New-Colors]-Individual-Action-Page" transform="translate(-1156.000000, -1234.000000)" fill-rule="nonzero">
            <g id="Group-25" transform="translate(185.000000, 1020.000000)">
                <g id="Group-20" transform="translate(971.000000, 211.000000)">
                    <g id="Group-8-Copy" transform="translate(0.000000, 3.000000)">
                        <circle id="Oval" stroke="#F85359" cx="8" cy="8" r="7.5"></circle>
                        <g id="add" transform="translate(8.000000, 8.000000) rotate(45.000000) translate(-8.000000, -8.000000) translate(4.000000, 4.000000)" fill="#F85359">
                            <path d="M7.56369106,3.44087805 L4.55682927,3.44087805 L4.55682927,0.434 C4.55682927,0.29702439 4.37082927,1.62601626e-05 3.99884553,1.62601626e-05 C3.62686179,1.62601626e-05 3.44086179,0.29704065 3.44086179,0.434 L3.44086179,3.44089431 L0.43398374,3.44089431 C0.29702439,3.44087805 0,3.62687805 0,3.99884553 C0,4.37081301 0.29702439,4.55682927 0.43398374,4.55682927 L3.44087805,4.55682927 L3.44087805,7.56372358 C3.44087805,7.70066667 3.62686179,7.99770732 3.99886179,7.99770732 C4.37086179,7.99770732 4.55684553,7.70066667 4.55684553,7.56372358 L4.55684553,4.55682927 L7.56373984,4.55682927 C7.70068293,4.55682927 7.99772358,4.37084553 7.99772358,3.99884553 C7.99772358,3.62684553 7.70065041,3.44087805 7.56369106,3.44087805 Z" id="Path"></path>
                        </g>
                    </g>
                </g>
            </g>
        </g>
    </g>
</svg>